<?xml version="1.0" standalone="no"?>
<!DOCTYPE svg PUBLIC "-//W3C//DTD SVG 20010904//EN"
 "http://www.w3.org/TR/2001/REC-SVG-20010904/DTD/svg10.dtd">
<svg version="1.0" xmlns="http://www.w3.org/2000/svg"
 width="800.000000pt" height="800.000000pt" viewBox="0 0 800.000000 800.000000"
 preserveAspectRatio="xMidYMid meet">
<metadata>
Created by potrace 1.11, written by Peter Selinger 2001-2013
</metadata>
<g transform="translate(0.000000,800.000000) scale(0.100000,-0.100000)"
fill="#000000" stroke="none">
<path d="M0 4000 l0 -4000 4000 0 4000 0 0 4000 0 4000 -4000 0 -4000 0 0
-4000z m4391 2161 c246 -55 436 -153 637 -329 96 -84 96 -98 -1 -45 -45 25
-93 55 -107 67 -14 13 -47 39 -73 59 l-48 35 -86 -23 c-51 -14 -92 -21 -101
-16 -10 6 10 14 59 26 107 26 110 28 58 61 -98 62 -254 125 -404 164 -93 24
-43 25 66 1z m294 -322 c177 -19 352 -71 445 -132 46 -30 123 -116 158 -178
32 -53 62 -158 62 -211 0 -49 -28 -134 -37 -111 -2 7 0 21 6 32 25 46 0 173
-52 260 -18 30 -63 86 -102 125 -59 60 -82 76 -143 99 -81 31 -188 57 -332 83
-111 21 -491 25 -551 7 -20 -6 -42 -7 -49 -3 -13 8 102 28 227 39 88 9 235 4
368 -10z m-785 -706 c55 -168 134 -277 253 -350 55 -34 57 -38 51 -67 -11 -53
-34 -94 -74 -130 -47 -42 -93 -56 -189 -56 l-74 0 20 23 c45 48 58 88 58 179
0 72 -3 91 -21 115 -32 43 -73 43 -113 -2 -17 -20 -31 -41 -31 -47 0 -7 17
-29 37 -50 42 -43 36 -58 -24 -58 -41 0 -46 -9 -34 -62 6 -23 8 -44 6 -47 -10
-9 -74 51 -103 96 -85 134 -77 277 24 400 42 51 115 103 158 114 17 4 32 7 32
8 1 1 11 -29 24 -66z m779 -217 c30 -166 -12 -328 -100 -380 -51 -30 -60 -21
-31 31 49 87 30 233 -30 233 -18 0 -13 8 29 53 27 28 62 71 78 95 15 24 32 39
36 35 4 -4 12 -35 18 -67z m-1409 -120 c-45 -132 -62 -230 -66 -376 -5 -196
27 -308 132 -455 45 -64 149 -169 199 -201 17 -10 35 -24 42 -30 6 -6 34 -25
62 -43 28 -18 51 -35 51 -37 0 -2 -35 13 -77 34 -77 39 -79 39 -128 26 -96
-26 -116 -12 -23 16 l51 15 -39 26 c-101 68 -200 180 -257 294 -92 185 -92
420 0 655 28 72 71 160 77 160 3 0 -8 -38 -24 -84z m1171 -54 c-8 -15 -4 -23
19 -41 34 -25 39 -51 11 -51 -31 0 -51 -11 -51 -29 -1 -14 -3 -13 -15 3 -8 11
-15 39 -15 63 0 36 4 45 28 57 35 19 35 19 23 -2z m-813 -267 c23 -15 42 -30
42 -33 0 -13 -54 -122 -61 -122 -20 0 -119 202 -119 245 0 13 12 7 48 -23 26
-21 66 -52 90 -67z m-157 -18 c11 -32 41 -88 65 -124 24 -36 44 -69 44 -73 0
-4 -13 -36 -29 -71 l-29 -64 -26 55 c-38 84 -57 165 -62 275 -5 107 -2 107 37
2z m325 -81 c38 -19 94 -42 124 -52 30 -10 57 -20 59 -21 1 -1 -5 -45 -14 -98
l-18 -97 -31 6 c-47 9 -186 81 -231 120 l-39 35 34 70 c18 39 37 71 40 71 3 0
37 -15 76 -34z m785 -10 c-11 -24 -25 -53 -32 -64 -13 -21 -14 -21 -30 10
l-17 33 47 32 c25 17 47 32 48 32 1 1 -6 -19 -16 -43z m30 -116 c-12 -39 -24
-70 -26 -70 -2 0 -9 9 -15 19 -8 16 -3 32 22 80 18 33 35 55 36 50 2 -5 -6
-41 -17 -79z m-134 26 l22 -44 -43 -40 c-37 -34 -94 -72 -109 -72 -6 0 -31
160 -26 164 4 4 106 33 125 35 5 0 20 -19 31 -43z m-216 -5 c4 -3 13 -43 21
-88 l14 -82 -55 -12 c-52 -11 -226 -7 -238 5 -3 3 2 48 11 99 l17 95 112 -5
c62 -3 115 -8 118 -12z m754 -161 c86 -300 13 -498 -218 -594 -49 -20 -38 -2
15 25 23 12 61 40 86 63 119 111 144 254 91 516 -30 152 -18 148 26 -10z
m-1276 26 c35 -23 106 -53 187 -81 8 -2 7 -30 -6 -100 -10 -52 -20 -98 -23
-101 -9 -9 -75 15 -150 54 -70 36 -187 141 -187 168 0 7 14 43 32 78 l32 65
35 -28 c20 -16 56 -40 80 -55z m776 -96 c-41 -62 -107 -130 -126 -130 -7 0
-29 111 -29 143 0 9 17 25 38 36 21 11 58 36 82 56 l44 37 18 -37 19 -36 -46
-69z m-195 -67 c6 -42 14 -82 17 -89 3 -7 -18 -21 -54 -35 -50 -20 -76 -23
-190 -24 -72 0 -134 3 -138 6 -3 4 2 51 12 105 l19 99 114 -3 c63 -1 131 2
150 7 19 5 40 9 46 10 6 1 17 -32 24 -76z m-1106 -322 c6 -9 -137 -51 -174
-51 -39 0 -14 12 72 36 98 27 95 26 102 15z m2123 -144 c43 -65 93 -187 93
-228 0 -10 -7 -19 -15 -19 -9 0 -15 9 -15 25 0 71 -70 214 -158 324 l-45 56
47 -45 c26 -25 68 -76 93 -113z m-1987 -4 c30 -8 75 -25 101 -38 46 -24 139
-116 139 -139 0 -12 -153 -86 -176 -86 -7 0 -35 15 -63 34 -50 34 -51 34 -51
11 0 -12 8 -47 17 -76 23 -70 83 -131 171 -172 l67 -32 171 2 c159 3 173 1
215 -20 50 -25 84 -77 95 -146 l7 -43 -27 27 c-15 15 -32 25 -39 22 -7 -2 -54
-10 -105 -17 -79 -11 -96 -17 -112 -38 -11 -14 -20 -34 -20 -45 0 -18 -4 -16
-29 13 l-29 35 -103 -18 c-57 -9 -115 -17 -127 -17 -13 0 -40 -8 -59 -17 -34
-16 -40 -16 -106 1 -226 59 -415 195 -489 351 -28 61 -30 73 -26 145 4 65 10
88 34 127 81 132 332 195 544 136z m1614 -182 c76 -48 164 -160 182 -233 9
-41 -12 -35 -34 8 l-19 37 -6 -40 c-6 -33 -14 -45 -42 -62 -19 -11 -35 -26
-35 -32 0 -7 -8 -5 -20 6 -19 17 -25 17 -105 3 l-85 -15 0 22 c0 13 -7 28 -16
35 -39 33 -36 47 17 79 l50 32 -61 60 c-44 43 -60 66 -58 82 4 27 42 47 91 47
22 0 36 4 32 10 -8 13 70 -15 109 -39z m-737 -513 c-3 -7 -5 -2 -5 12 0 14 2
19 5 13 2 -7 2 -19 0 -25z m53 -82 c14 -18 14 -19 -7 -7 -20 10 -43 40 -43 56
0 7 29 -21 50 -49z m425 34 c-3 -5 -11 -10 -16 -10 -6 0 -7 5 -4 10 3 6 11 10
16 10 6 0 7 -4 4 -10z"/>
</g>
</svg>
